/* XPM */
static char *result[] = {
/* columns rows colors chars-per-pixel */
"64 64 69 1 ",
"  c #020203",
". c #080706",
"X c #0B0906",
"o c #0D0B08",
"O c #120E09",
"+ c #15110A",
"@ c #1B150C",
"# c #1E180E",
"$ c #221A0F",
"% c #241C10",
"& c #281F11",
"* c #2C2212",
"= c #322714",
"- c #352916",
"; c #392C17",
": c #372B18",
"> c #3B2E18",
", c #3E3019",
"< c #44351B",
"1 c #4C3B1E",
"2 c #503D1F",
"3 c #4E3D20",
"4 c #523F21",
"5 c #564222",
"6 c #5B4624",
"7 c #5E4925",
"8 c #634C27",
"9 c #654E28",
"0 c #675029",
"q c #6C542B",
"w c #70562C",
"e c #755A2D",
"r c #795D2F",
"t c #7B5F30",
"y c #7E6130",
"u c #846533",
"i c #8A6A35",
"p c #937138",
"a c #9A763B",
"s c #9D793C",
"d c #A27D3E",
"f c #A57F40",
"g c #A78040",
"h c #AB8341",
"j c #B08744",
"k c #B48A45",
"l c #B98E47",
"z c #BC9047",
"x c #BD9148",
"c c #C5974B",
"v c #C7984C",
"b c #CD9D4E",
"n c #D09F4F",
"m c #D1A04F",
"M c #D5A351",
"N c #DAA753",
"B c #DDAA54",
"V c #E3AE57",
"C c #E5B057",
"Z c #E5B158",
"A c #EBB55A",
"S c #F0B75B",
"D c #F3BB5C",
"F c #F9BF5F",
"G c #FBC05F",
"H c #FDC361",
"J c #FFC963",
"K c #FFD167",
"L c None",
/* pixels */
"LLLLLLLLLLLLLLLLLLLLLLLLLLLLLLLLLLLLLLLLLLLLLLLLLLLLLLLLLLLLLLLL",
"LLLLLLLLLLLLLLLLLLLLLLLLL    @=:::*@    LLLLLLLLLLLLLLLLLLLLLLLL",
"LLLLLLLLLLLLLLLLLLLLLL  &6pkxcccccccchi2$  LLLLLLLLLLLLLLLLLLLLL",
"LLLLLLLLLLLLLLLLLLL  &ucvzsq<&@OO+@*1edcvzw@ LLLLLLLLLLLLLLLLLLL",
"LLLLLLLLLLLLLLLLL  <xBk9$               &ecBh- LLLLLLLLLLLLLLLLL",
"LLLLLLLLLLLLLLL  ,cNp&         .           >fVj% LLLLLLLLLLLLLLL",
"LLLLLLLLLLLLLL .hAiO   .           .         &fAi  LLLLLLLLLLLLL",
"LLLLLLLLLLLLL 1Cx&     .       .  .            ,MM$ LLLLLLLLLLLL",
"LLLLLLLLLLL  uDe     .  .  .       . .  .. . .   sD6 LLLLLLLLLLL",
"LLLLLLLLLL  dA=  .    .      . . .             .  6Fy LLLLLLLLLL",
"LLLLLLLLL  kV.   .   . . .      .    . .. . .  .   &Fi LLLLLLLLL",
"LLLLLLLL  kM      . . . .  . ..   .      . .        @Du LLLLLLLL",
"LLLLLLLL aV          .   . .         .  .    .       $G8 LLLLLLL",
"LLLLLLL 7H+     .  .    .       .        .        .   <G= LLLLLL",
"LLLLLL %F<     .                                       eC LLLLLL",
"LLLLLL vp  .  .                                         ca LLLLL",
"LLLLL qV     . .  eaiiiiiiiiiiiiiiiiiiiiiiiiiiiiiiiiiik<OD= LLLL",
"LLLL  C1 .    .   cHVVVVCVVVVVVVVCVCVCVCVVCVVVCVVVVVVKx@ uc LLLL",
"LLLL ic    ... .  hNccccccccvccccccccccvvcccvcccccccSs    V5 LLL",
"LLL  B< . .   .   hNccccccvcccvccccccccccccccccccccAa     uc LLL",
"LLL 8v  . .. .    hNccccvcccccvcccccvcccccvcccccccAs  .   XM- LL",
"LLL cq   .  . ..  hNccccccccccccccccccccccccccccvDp    .   ad LL",
"LL $m@  .  . ..   hNccccccvvcccccccccccvcvcccvcvDp         1b LL",
"LL qz    .  .  .  hBcccccccbmbmbnnnnnnbnbnmbnbnDi          .v> L",
"LL gu     .   .   gNcvcccccvcvvvvvvvvvvvvvvvvvBi  .  .      di L",
"LL c<    .  .  .  gNcccccnc=@++@++@++@@+@+@+@@@  .... . .   wk L",
"L *c+  ..  . . .  hNcccvcmc                       .  . .  . ,c.L",
"L 3c        . .   hNcccccnc+ qgpppppppppippppap+   .    .   &c&L",
"L wl       . . .  gBcccccmcO dGVVVVVVBVVVVVVVSV$    .       +c-L",
"L uk     ..    .  hNcccccmc+ pVccccccccccccccnc#   .   .     c<L",
"L ih     . .. .   gNccvccmcO pVccccccccccccccnc#    .        l3L",
"L id         . .  gNcccccmcO pVccccccccccccccnc#  .    . .   j5L",
"L ih  . . . .  .  gNcccccnc+ pVccccccccccvcccnv$    .  . .   x3L",
"L uk     . .      hNcccvcnc+ pVccccccccvcccccnv@     .. .   .x3L",
"L 9l    .    .    kVbnnbbNb+ pAbbnbbnbvccccvcnv@          . @v*L",
"L 3c  . . . .  .  hVbbvbbNvO aAbbvbbbbcccccccnv$  .   . .   &v$L",
"L $c#    . .      @$#$$#$$$  +&#$$$$@@dBcccccnv$   . ..     3c L",
"L  x4   . .  ..                       aVcvcccnv@       .    eh L",
"LL sp . .  .     $piiuuuuuuuuuuiuuuuuulbcccccnv@         .  jt L",
"LL 6c  . .      $mFVCCCCCCCVZZZZCVCCCCvccccccnv@     .     Ob* L",
"LL +M&  .      &mVcccccccccccccccccccccccccccnv$   . .  .  6b LL",
"LLL lu    .   &MVcccccccccccccccccccccvcccvccnv@ .         gp LL",
"LLL 1m       &NBzccccccccccccccccccvcccccccccnv$    .  .  #N$ LL",
"LLL  M7     &NBccccccccccccccccvcccccvcccccccnv@   .      sk LLL",
"LLLL qn    *MVccccccccccccccccccccccccccvccccnv@      .. oA> LLL",
"LLLL  Nq  ;BAvbbnbnbnbnbbbbbnbnbnbnbnbbbbnnbbNn$  .      dh LLLL",
"LLLLL 1A &VCvbbbbbbbbbbbbbbbbbbbbbbbbbbbbbbbbNb@        =F@ LLLL",
"LLLLL  jjX=$%$%$$$%$$$$$%$$%%#%%$$$$$$$%$$$%$$%. .      Br LLLLL",
"LLLLLL XA8                                       .     dv LLLLLL",
"LLLLLLL ;J-     .      .    .      .              .   qDO LLLLLL",
"LLLLLLLL 8G$          .      . .       .        .    1H> LLLLLLL",
"LLLLLLLL  iD$    .      .   . . .   . . .   . .     <H5 LLLLLLLL",
"LLLLLLLLL  uG-     .     ..    .  . . .    .   ..  7J6 LLLLLLLLL",
"LLLLLLLLLL  eH8     . .     .  .  .  . .          iG3 LLLLLLLLLL",
"LLLLLLLLLLL  1Ag     .     .  . .  ..  . ..     @vB* LLLLLLLLLLL",
"LLLLLLLLLLLL  #bN5       .     .  .  .         wZj  LLLLLLLLLLLL",
"LLLLLLLLLLLLLL  rAk>            .   .        2vV5  LLLLLLLLLLLLL",
"LLLLLLLLLLLLLLL  OsVl2           .        O8vBu  LLLLLLLLLLLLLLL",
"LLLLLLLLLLLLLLLLL  @iNms1o             @6gNbr.  LLLLLLLLLLLLLLLL",
"LLLLLLLLLLLLLLLLLLL  .2dvcldt71>:>37uflcvp<   LLLLLLLLLLLLLLLLLL",
"LLLLLLLLLLLLLLLLLLLLL   .;7igkzxzzlkfu5=   LLLLLLLLLLLLLLLLLLLLL",
"LLLLLLLLLLLLLLLLLLLLLLLL       oOX      LLLLLLLLLLLLLLLLLLLLLLLL",
"LLLLLLLLLLLLLLLLLLLLLLLLLLLLLL     LLLLLLLLLLLLLLLLLLLLLLLLLLLLL",
"LLLLLLLLLLLLLLLLLLLLLLLLLLLLLLLLLLLLLLLLLLLLLLLLLLLLLLLLLLLLLLLL"
};
