/* XPM */
static char *result[] = {
/* columns rows colors chars-per-pixel */
"32 32 67 1 ",
"  c #010102",
". c #090704",
"X c #0C0906",
"o c #0F0C08",
"O c #120E07",
"+ c #110E09",
"@ c #16110A",
"# c #1A150B",
"$ c #1F190F",
"% c #231B0F",
"& c #251D10",
"* c #281F10",
"= c #2D2313",
"- c #312615",
"; c #352916",
": c #392C17",
"> c #3C2E19",
", c #3E3018",
"< c #43341B",
"1 c #4D3B1E",
"2 c #513E1F",
"3 c #4F3D20",
"4 c #503E20",
"5 c #564222",
"6 c #5A4524",
"7 c #5E4925",
"8 c #624C27",
"9 c #654E28",
"0 c #675029",
"q c #6C532A",
"w c #71572C",
"e c #74592D",
"r c #785C2F",
"t c #7B5F30",
"y c #7E6131",
"u c #836533",
"i c #876835",
"p c #8C6B36",
"a c #8F6E38",
"s c #916F38",
"d c #937139",
"f c #99763C",
"g c #9E793D",
"h c #A37D3F",
"j c #AD8542",
"k c #B18743",
"l c #B68C46",
"z c #B98E47",
"x c #BC9048",
"c c #C5974B",
"v c #C7984C",
"b c #CC9D4E",
"n c #D0A04F",
"m c #D7A552",
"M c #DAA753",
"N c #DCA854",
"B c #E2AD56",
"V c #E7B157",
"C c #E9B359",
"Z c #EFB85B",
"A c #F0B75A",
"S c #F2B95C",
"D c #F9BF5E",
"F c #FCC15F",
"G c #FFC662",
"H c #FFCC64",
"J c None",
/* pixels */
"JJJJJJJJJJJJJJ%=;=$JJJJJJJJJJJJJ",
"JJJJJJJJJJJ1qrq990wrq<JJJJJJJJJJ",
"JJJJJJJJJ7ir<@     $1ri3JJJJJJJJ",
"JJJJJJJ*pr#           *yu+JJJJJJ",
"JJJJJJ<f:    .       .  2f%JJJJJ",
"JJJJJ>f@    .       .    -g%JJJJ",
"JJJJ*fO                   =dOJJJ",
"JJJ i=                     1yJJJ",
"JJJ7q    5happpppappapaappl:0,JJ",
"JJouo    pHBBBBBBBBBBBBNNHz.#rJJ",
"JJ57     rVcccccvcccccccSg   q;J",
"JJq=  X  rVccbBBBBBBBNBDh    19J",
"J@q      rVcbxprttttttuy   . $0J",
"J>8      rVcBa o++++oo#    .  qJ",
"J<6   .  rVcBt+nmbbbbbSt      qJ",
"J35  .   rVcBu@nmbbbbbZt      8J",
"J35 .    tCvVy@vbcvcccBr  ..  8J",
"J35  .   iHNGd@VVBBbccCr      wJ",
"J:8      .;=;o ==&&hNcBr      qJ",
"J+qX     45336q3411jmvVt     &0J",
"JJq;    tFCVVCVCVVVnccVt  .  48J",
"JJ39   rSbcvvvcccvcvccBt     q=J",
"JJ.uo iGNmmmmmmMmmmmmmFu    ;tJJ",
"JJJ46;Mzjkkkkkkkkkkkkkbq    y;JJ",
"JJJ u4                     5wJJJ",
"JJJJ$s+                   :s.JJJ",
"JJJJJ-f%    .    . .     <f#JJJJ",
"JJJJJJ-f1      .  .     8d@JJJJJ",
"JJJJJJJ#uy=           ,ir.JJJJJJ",
"JJJJJJJJ 1uy3&.   X=6uy:JJJJJJJJ",
"JJJJJJJJJJ <9wr00qrw8;JJJJJJJJJJ",
"JJJJJJJJJJJJJJ+&&$oJJJJJJJJJJJJJ"
};
