/* XPM */
static char *result[] = {
/* columns rows colors chars-per-pixel */
"128 128 84 1 ",
"  c #020203",
". c #080705",
"X c #0B0906",
"o c #070708",
"O c #0D0B09",
"+ c #110D07",
"@ c #110E09",
"# c #16110A",
"$ c #1B150C",
"% c #1E180E",
"& c #0F0F10",
"* c #131313",
"= c #171718",
"- c #1A1A1B",
"; c #221A0E",
": c #251D11",
"> c #281F11",
", c #2B2112",
"< c #312614",
"1 c #352916",
"2 c #3A2D17",
"3 c #372B18",
"4 c #3B2E18",
"5 c #3E301A",
"6 c #1F1F20",
"7 c #212122",
"8 c #2C2C2D",
"9 c #42331B",
"0 c #48371D",
"q c #4B3A1E",
"w c #513E1F",
"e c #4F3D20",
"r c #513E20",
"t c #554222",
"y c #5A4523",
"u c #5E4825",
"i c #614A26",
"p c #664E28",
"a c #6C532A",
"s c #71562C",
"d c #755A2E",
"f c #795D2F",
"g c #7B5E30",
"h c #7E6131",
"j c #836433",
"k c #876834",
"l c #8A6A35",
"z c #8F6E38",
"x c #906F37",
"c c #906F38",
"v c #957239",
"b c #9A763B",
"n c #9D793C",
"m c #A27C3E",
"M c #A57F40",
"N c #A78040",
"B c #AB8442",
"V c #B08744",
"C c #B48A45",
"Z c #BA8E47",
"A c #BB8F48",
"S c #BE9248",
"D c #C5974B",
"F c #C6984B",
"G c #CC9C4E",
"H c #D09F4F",
"J c #D09F50",
"K c #D0A04F",
"L c #D4A351",
"P c #D9A652",
"I c #DDA954",
"U c #E3AE56",
"Y c #E6B057",
"T c #E7B158",
"R c #EBB459",
"E c #EFB85B",
"W c #F0B75B",
"Q c #F4BB5C",
"! c #F9BE5E",
"~ c #FBC15F",
"^ c #FFC561",
"/ c #FFCB64",
"( c #FFD167",
") c None",
/* pixels */
"))))))))))))))))))))))))))))))))))))))))))))))))))))))))))))))))))))))))))))))))))))))))))))))))))))))))))))))))))))))))))))))))",
"))))))))))))))))))))))))))))))))))))))))))))))))))))))))))--=*@****-,*))))))))))))))))))))))))))))))))))))))))))))))))))))))))))",
"))))))))))))))))))))))))))))))))))))))))))))))))))))ooo                   o&))))))))))))))))))))))))))))))))))))))))))))))))))))",
")))))))))))))))))))))))))))))))))))))))))))))))Ooo        +;,444452,:#        Oo))))))))))))))))))))))))))))))))))))))))))))))))",
"))))))))))))))))))))))))))))))))))))))))))))oo      $9ihnVFLIURTYRYULFZmkaq>o      o))))))))))))))))))))))))))))))))))))))))))))",
")))))))))))))))))))))))))))))))))))))))))o      $0hBGW//~WULGGDDDDFGKUR~//QKCjy;     o))))))))))))))))))))))))))))))))))))))))))",
")))))))))))))))))))))))))))))))))))))))oo    qlVGW/^UZbft9,;:$#####$;,2wslVPQ/~PCbu#    o)))))))))))))))))))))))))))))))))))))))",
")))))))))))))))))))))))))))))))))))))o    >dZ!/~USjw,                      ;qhBP~/~Fz4    o)))))))))))))))))))))))))))))))))))))",
")))))))))))))))))))))))))))))))))))o   #ulP/^Slp3.                o   o        ;ihBW/Rna;   o)))))))))))))))))))))))))))))))))))",
")))))))))))))))))))))))))))))))))o   XaF~/UmtO       o         o                   0zL/~Pk;   o)))))))))))))))))))))))))))))))))",
")))))))))))))))))))))))))))))))o    yF^QFv<               o  o             o         ;hSR/Is$   o)))))))))))))))))))))))))))))))",
")))))))))))))))))))))))))))))     aSW^Dt$      o       o         o   o                 .qBQ~Gj.  o))))))))))))))))))))))))))))))",
"))))))))))))))))))))))))))))o   ,N~/Kp.          o   o  o  o   o   o        o      o      qS~/Dw   o))))))))))))))))))))))))))))",
")))))))))))))))))))))))))))    fP/Fj;  o    o                          o  o                .aV~Wz;  o)))))))))))))))))))))))))))",
")))))))))))))))))))))))))o   3S^~m#            o      o   o  o   o   o        o  o    o       kT^Pp   ))))))))))))))))))))))))))",
"))))))))))))))))))))))))o   iR^Gp        o        o                     o   o       o          5Z~~h   o))))))))))))))))))))))))",
")))))))))))))))))))))))   +nW^n#         o                 o  o       o  o               o       fY!S1  o)))))))))))))))))))))))",
"))))))))))))))))))))))   $G/Ra      o       o   o      o          o          o   o  o        o    9P/U2  o))))))))))))))))))))))",
")))))))))))))))))))))   4F/G9   o      o       o   oo    o                             o           >B~Ua   )))))))))))))))))))))",
"))))))))))))))))))))   uR^V#              o                  o  o    o    o    o   o      o    o     k~~j  o))))))))))))))))))))",
")))))))))))))))))))   0R~N         o                  o    o    o     o  o               o            kQQf   )))))))))))))))))))",
"))))))))))))))))))   iR~x             o  o   o   o             o               o o  o          o   o   yY!v   ))))))))))))))))))",
")))))))))))))))))   t!~j      o  o                 o     o  o      o        o          o    o   o       u~/h  o)))))))))))))))))",
"))))))))))))))))o  2U~x     o       o  o   o   o     o               o    o        o      o              pRWa  o))))))))))))))))",
")))))))))))))))o  3Y^v     o        o           o     o    o   o      o   o   o o     o   o   o        o  yW~a  o)))))))))))))))",
"))))))))))))))   #K~N         o  o        o   o   o             o                 o               o        f~E<  )))))))))))))))",
"))))))))))))))   B/Do     o           o                  o   o  o o             o                           b^K;  ))))))))))))))",
")))))))))))))o  f^U,        o      o    o   o  o o     o   o         o   o   o       o   o   o  o     o      C/Z  o)))))))))))))",
"))))))))))))   tWY0    o  o                                                                          o       #H^k  o))))))))))))",
")))))))))))   $Y/d            o o          o        o         o         o               o                     qQW2  ))))))))))))",
")))))))))))   k^FX  o       o       o           o     o             o       o   o   o       o   o              z~D  o)))))))))))",
"))))))))))   t!U,        o                                                                                      C/v   ))))))))))",
"))))))))))  +L^a      o    o o     &,::;:>::::::::::::::::::::::::::::::::::::::::::::::::::::,;;::::>:::::::,9 :RQq  ))))))))))",
")))))))))o  x^V                  o pWGHGGGGGGHGGGGGHGGGGGHGGGGGGGGGGGGGGJGGGJGGGGGGGGGGGGHGGGGGGGGGGGGGGHGGGG!k  v/B  o)))))))))",
")))))))))  ;U!q o                  iWHGGGGHGHGGGGGGGGGGGGGGGGGGGJGGGGJGGGGGGGGGGGKGGHGGGGGGGGGGGGGGGGGGGGGGH~b   #P~t  )))))))))",
"))))))))o  j/m       o   o   o     iYFFDFDDDDDDFDDFDFFFFDDDGDFFDFFDDFFDDFFDFFFDDDFDFFFDDFFDFFFDDDDFFDDDGDDFYz     p^D  o))))))))",
")))))))   3QU;     o   o    o o    uYDDDDDDDDDDDDDDDDDDDFDDDDDDDFDDDFDDDFDDDDDDDDDFDDDDDFDDDDDDDDDDDDDDDDDQh       B^g  ))))))))",
")))))))   m/j   o   o   o          iYDDDDDDDDDDDDFDDDDDDDDDDDDDDDDDDDDDDDDDDDDDDDDDDDDDDDDDDDDDDDDDDDDDDGQv  o     w~K# o)))))))",
")))))))  9RP$     o          o  o  iYFDDDDDDDDDDDDDDDDDDDDDDDDDDFDDDDDDDDDDDDDDDDDDDDDDDDDDDDDDDDDDDDDDFUh         XF~p  )))))))",
"))))))o  v/b               o       uYFDDDDDDDDDDDDDDDDDDDDDDDDDDDDDDDDDDDDDDDDDDDDDDDFDDDDDDDDDDDDDDDDF!j     o     a/B  o))))))",
"))))))  XDQq    o    oo     o      iYFDDDDDFDDDDDDDDDDDDDDDDDDFDDDDDDDDDDDDDDDDDDDDDDDFDDDDDDDDDDDDDDFWx            #HQ9  ))))))",
")))))   p/B               o        iYFDDDDDDDDDDDDDDDDDDDDDDDDDDDDDDDDDDDDDDDDDDDDDDDDDDDDDDDDDDDDDDFRs     o        s/m  ))))))",
")))))   V/u          o         o   iYFDDDDDDDDDDDDDDDDFDDDDDDDDDDDDDDDDDDDDDDDDDDDDDDDDDDDDDDDDDDDDF!z   o    o      $PY: o)))))",
")))))  5WFX    o  o      oo        iYFDDDDDDDDDDDDDDDDDDDDDDDDDDDDDDFDDDDDDDDFDDDDDDDDDDDDDDDDDDDDGUh            o    v/h  )))))",
"))))   z/f           o     o       uYFFDDDDDDDDDDDDDDDDDDDDDDDDDDDDDDDDDDDDDDDDDDDDFDDDDDDDDDDDDDFQd               o  i~S.  ))))",
"))))  XDE5   o    o           o  o iYFDDDDDDDDDDDDDDDDDDDDFDDDDDDDDDDDDDDDDDDDDDDDDDDDDDDDDDDDDDGRz    oo    o        <UI> o))))",
"))))  wRH$      o     o     o      uYFDDDDDDDDDDDFDDDDDDDDDDDDDDDDDDDDDDDDDDDDDDDDDDDDDDDDDDDDDFTs               o     B~y  ))))",
")))O  a/B      o    o     o        iYDDDDDDFDDDDDDDDDDDDDDDDDDDDDDDDDDDDFDDDDDDDDDDDDDDDDDDDDDF~j          o   o       a(c  ))))",
")))o  l/a             o  o     o   uYDDDDDDDDDDDDDDDDDDDFDDFDDFDDDDDFDDFDDFDDDDDFDDFDDFDDDDDDGRj  o o              o   <RDO o)))",
")))  .DR3     o    o         o     iYDDDDDDDDDDDDDDDDPYUUUUUYUUUYUYUUUUUYUUUUYUUUUUUYUUUUYUURQa         o  o  o         ZQ5  )))",
")))o <YDX                     o o  iYFDDDDDDDDDDDDFFGbjkjkkjljljljkkjkkjljljkjlljkkjljljkjllva         o         o      z/a  )))",
"))   p/c    o   o    o   o         uYDDDDDDDDDDDDDDFU<                                             o         o o        y^n  )))",
"))o  j/a       o      o     o      iYFFDDDDFDDDDDDFFI9                                            o   o                 3RS. o))",
"))   B~q        o          o       iYFDDDDDDDDDDDDDFI9                                                   o  o      o    @FU,  ))",
"))  #FI,     o     o     o     o   iYFDDDDDDDDDDDDDFI9    +OXXOOXXOOXXOOXXOOOOXXOOOOXXO+XXOOXX      o     o         o    B~q o))",
"))  ,UDO              o    o       iYFDDDDDDDDDDDDDDI9   ;DSZZZZZZZZZZZZZZZZZZZZZZZZZZZZZZZZPs   o      o     o o        n~p  ))",
"))o q!B          o      o     o    uYFDDDDDDDDDDDDDFI9   ;UILLLLLLLLLLLLLLKLLLLLLLLLLLLLLLLL!j       o    o       o      x/j  ))",
")o  y/c        o    o     o      o iYFDDDDDDDDDDDDFFI9   ;GGDDDDDDDDDDDDDFDDFFDFDDFDDDDDDDDDUf              o            l~v  ))",
")o  a/h     o          oo   o      uYFDDFDDDDFDDDDFFI9   :HGDDDDDDDDDDDDDDDDDDFDDDDDDDDDDDDDUf  o  o           o         f~n  6)",
")o  h/s  o         o               iYFDDDDDDDDDDDDDGI9   ;HGDDDDDDDDDDDDDDDDDDDDDDDDDDDDDDDFYg        o  o       o   o   p~B  7)",
")*  j/a   o   o                o   uYDDDDDDDDDDDDDDFU9   ;HGDDDDDDDDDDDDDFDDDDDDDDDDDDDDDDDDTg       o    o    o   o     u^B  -)",
")O  z^p          o   o       o     iYDDDDDDDDDDDDDDGI9   ;GGDDDDDDDDDDDDDDDDDDDDDDDDDDDDDDDDUg    o                    o t~B  7)",
")O  v/a  o              o  o  o o  iYFDDDDDDDDDDDDDFI9   ;HGDDDDDFDDDDDDDDDDDDDDDDDDDDDDDDDDUg   o     o     o   o   o   q!B  -)",
")O  v^a      o     o   o           uYFDDDDDDDDDDDDDFI9   ;HGDDDDDDDDDDDDDDDDDDDDDDDDDDFDDDDDUg     o     o               q!B  -)",
")o  x/p              o             iYDDDDDDDDDDDDDFFP9   ;GGDDDDDDDDDDDDFDDDDDDDDDDDDDDDDDFDYg              o     o   o  e!B  -)",
")o  l^a o   o  o  o     o   o      iYDDDDDDDDDDDDFFFI9   :HGDDDDDDDDDDDDDDDDDDDDDDDDDDDDDDDDYf      o   o     o          y^B  -)",
")*  j/a    o               o   o   iYFDDDDDDDDDDDDDFI9   ;HGDDDDDDDDDDDDDDDDDDDDDDDDDDDDDDDDUf        o   o         o    i^M  7)",
")*  f/d          o o  o            iYFDDDDDDDDDDDDFFI9   ;GGDDDDDDDDDDDDDDDDDDDDDFDDDDDDDDDDUf    o          o     o     a^m  7)",
")o  p/k       o   o o        o     uYFDDDDDDDDDDDDFFI9   ;HGDDDDDDDDDDDDDDDDDDDDDDDDDDDDDDDDYg      o     o      oo      h~n  7)",
")o  t^n                  o       o iYFDDDDDDDDDDDDFFI9   ;HGDDDDDDDDDDDDDDDDDDDDDDDDDDDDDDDDYg    o          o           x^z  ))",
")o  4WV               o            uRFDDDDDDDDDDDDFFI9   :HGDDDDDFFFDDDDDDFFDDDDDDDDDDDDDDDDYg        o           o      v^f  ))",
"))  :PG$   o o    o        o o     a~IIIIIIIIIIPIIIU!0   >YUIIIPPIIIIIIIIPILSDDFDDDDDDDDDDDDYf  o  o    o    oo     o    m~y  ))",
"))  oST3           o      o        qSmmmmmnmmmmmmmmmC3   $BmmmmmmmmmmmmmmmmVFFFDDDDDDDDFDDDDUf             oo            VQ9 o))",
"))   b^t       o o     o       o                                           wYFDDDDDDDDDDFDDDYf    o   o          o      ;KK$ o))",
"))o  f/h    o     o  o      o   o                                          wYFDDDDDDDDDDDDDDUf                          0~V  o))",
"))O  t^N                o                                                  qYFDDDDDDDDDDDDDFYg  o   o     o  o  o  o    a/l  )))",
")))  %KP$      o     o        o                                            wYDDDDDDDDDDDDDDDYg    o   o    o            n^y  )))",
")))o  B~e   o     o       o        xVmmmmmmmmmmmmmmmmmmmmmmmmmmmmmmmmmmmmmnVGDDDDDDDDDDDDDDDYf           o    o   o    @GU,  )))",
")))o  h/k                    o    mQIIPIIIIIPIIIPIIIIIPIIIIIPIIIIIPIIIIIPIIHDDDDDDDDDDDDDDDDUf                         q~B  O)))",
")))o  i~So       oo    oo        nWDDDDDDDDDDDDDDDDDDDDDDDDDDDDDDDDDDDDDDDDDDDDDFDDDDDDDDDDDUf   o   o    o  o  o      l(g  ))))",
"))))  3UP>         o  o         bWDDDDDDDDDDDDDDDDDDDDDDDDDDDDDDDDDDDDDDDDDDDDDDDDDDDDDDDDDDYg      o                 .DW9  ))))",
"))))   B~t                 o   BRDDDDDDDDDDDDDDDDDDDDDDDDDDDDDDDDDDDDDDDDDDDDDDDDDDDDDDDDDDDYg   o      o  o   o  o   qWK$ o))))",
"))))   s(b    o  o            bRDDDDDDDDDDDDDDDDDDDDDDDFDDDDDDDDDDDDDDDDDDDDDDDDDFDDDDDDDDDDYf        o     o   o     s/B  o))))",
"))))o  $PY,          o      +BRDDDDDDDDDDDDDDDDDDDDDDDDDDDDDDDDDDDDDDDDDDDDDDDDDDDDDDDDDDDDDYg   oo                   B~u  )))))",
")))))   c(j        o        BQDDDDDDDDDDDDDDDDDDDDDDDDDDDDDDDDDDDDDDDDDDDDDDDDDDDDDDDDDDDFDDUf     oo    o    o      5~FX o)))))",
")))))o  9EG+   o     o     nYDDDDDDDDDDDDDDDDDDDDDDDDDDDDDDDDDDDDDDDDDDDDDFDDDDDDDDDDDDDDDDDYf                       v/j  O)))))",
"))))))   B~f     o       .ZTDDDDDDDDDDDDDDDDDDDDDDDFDDDDDDDDDDDDDDDDDDDDDDDDDDDDDDDDDDDDDDDDUf                      <RP$  ))))))",
"))))))o  h/V       o     mWDDDDDDDDDDDDDDDDDDDDDDDDDDDDDDDDDFDDDDDDDDDDDDDDDDDDDDDFDDDDDDDDFYg   o    o   o o    o  c/z  O))))))",
"))))))O  $LR9       o  OMYDDDDDDDDDDDDDDDDDDDDDDDDDDDDDDDDDDDDDDDDDDDDDDDDDDDDDDDDDDDDDDDDDDYg      o              ;UW9  )))))))",
")))))))   f/V   o      SQDDDDDDDDDDDDDDDDDDDDDFDDDDDDDDDDDDDDDDDDDDDDDDDDDDDDDDDDDDDDDDDDDDDYf   o     o  o   o    f/V  o)))))))",
")))))))o  @H~t        bRDDDDDDDDDDDDDDDDDDDDDDDDDDDDDDDDDDDDDDDDDDDDDDDDDDFDDDDDDDDDDDDDDDDDUf       o  o         $LQq  o)))))))",
"))))))))   t~K#     XZRDDDDDDDDDDDDDDDDDDDDDDDDDDDDDDDDDDDDDDDDDDDDDDDDDDDDDDDDDDDDDDDDDDDDDUf    o         o     n/v  o))))))))",
"))))))))O   G/d     CQDDDDDDDDDDDDDDDDDDDDDDDDDDDDDDDDDDDFDDDDDDDDDDDDDDDDDDDDDDDDDDDDDDDDFDTg        o          0QI;  )))))))))",
")))))))))   i!K$  $CQJJJJLLLLLLLLLLLLLLLLLLLLLLLLLLLLLLLLLLLLLLLLKLLLLLLLLLLLLLLLLLLLLPJLLLJ!j   o         o     S/l  o)))))))))",
")))))))))O   m/B .VUZZZAZZZZAZZZZAAZAZAAZAAZZAZZAZZAZAAZZZZZZZZZAAAZZZZAAZAZZAAZZZZZZAZZZAZZPd          o       a~P$  ))))))))))",
"))))))))))   ;P~i ;XOOO+X+X+X+OO+O+XO+XX@XOX@XOOXO+O+XO+XO+O@XXX+XX@O+OXX+O+OX+X+O+O+XX+@XO+@o  o o   o      o :U~t  o))))))))))",
")))))))))))   t~R,                                                                             o     o        #G~k   )))))))))))",
")))))))))))O   Z/B         o    o      o           o     o     o   o       o   o   o       o       o    o     z/LX  *)))))))))))",
"))))))))))))   $K^l                o        o              o           o               o               o     wYWq  o))))))))))))",
")))))))))))))   <R~s                                                                            o           1Y^s  o)))))))))))))",
")))))))))))))&   a~R2       o       o   o  o   o    o    o    o   o   o   o       o   o   o         o      $L~b   ))))))))))))))",
"))))))))))))))O   v~P3    o   o o                 o   o                        o              o   o   o    S/F  o*))))))))))))))",
")))))))))))))))    B^P:            o  o  o   o               o               o              o             B/I;  o)))))))))))))))",
"))))))))))))))))    Z/K$    o                   o   o    o     o o   o   o     o o   o   o       o o    .V~G,  o))))))))))))))))",
")))))))))))))))))o  #F/K:        o                        o          o      o        o        o   o     N/R2   )))))))))))))))))",
")))))))))))))))))o   $D~K<    o      o  o  o   o   o  o     o      o    o          o       o          +B~Iq   ))))))))))))))))))",
"))))))))))))))))))*   .A/Iq                 o   o             o o          o  o o        o           $G^K:   )))))))))))))))))))",
")))))))))))))))))))*   +C^Ra      o    o            o    o            o               o      o      2H/I1   ))))))))))))))))))))",
"))))))))))))))))))))* o  k~!z.      o    o    o   o             o    o      o   o    o     o       sU^m;  o)))))))))))))))))))))",
")))))))))))))))))))))*    fR~D<                       o    o            o                        @b^^m    ))))))))))))))))))))))",
"))))))))))))))))))))))*    qK/Iy       o                o   o  o  o        o  o   o      o      9F/If  o )))))))))))))))))))))))",
"))))))))))))))))))))))))    $N~WC4        o o    o  o                 o               o       $vT^D<   o))))))))))))))))))))))))",
")))))))))))))))))))))))))oo   aU/Ua.            o   o                          oo    o       qK/WxO   *)))))))))))))))))))))))))",
"))))))))))))))))))))))))))Oo   1bW~Za      o  o           o   o  o     o  o                wmW/Cq    -))))))))))))))))))))))))))",
"))))))))))))))))))))))))))))     qG^~Si           o    o            o        o           9mQ/Ia    O))))))))))))))))))))))))))))",
")))))))))))))))))))))))))))))O    #jF~~Bq#               o  o      o    o             X2vW/Kn<    *)))))))))))))))))))))))))))))",
")))))))))))))))))))))))))))))))o    @sG/QGk9                   o o                  :dDU/Iz;    O)))))))))))))))))))))))))))))))",
"))))))))))))))))))))))))))))))))*     @fKQ/WBu;            o                     +qbP/~Uz<    o*))))))))))))))))))))))))))))))))",
"))))))))))))))))))))))))))))))))))=     $wcK~~Kbdy%                 o        $qazD!/Ymu,   o -))))))))))))))))))))))))))))))))))",
"))))))))))))))))))))))))))))))))))))*      ;aVY//~Kmjw<#                +:qfbGQ^/QSf1      *))))))))))))))))))))))))))))))))))))",
"))))))))))))))))))))))))))))))))))))))=o      3smCI~/~RFBvhaitqqqqwuafxmDI!//USBg0O    oO=))))))))))))))))))))))))))))))))))))))",
"))))))))))))))))))))))))))))))))))))))))-O       .,whNDU!^///~~QQ~~^///~YGBjp,.       -8))))))))))))))))))))))))))))))))))))))))",
")))))))))))))))))))))))))))))))))))))))))))-o o       O,0usjcnnNBmbvldiq1#         O*)))))))))))))))))))))))))))))))))))))))))))",
"))))))))))))))))))))))))))))))))))))))))))))))7-                               o77))))))))))))))))))))))))))))))))))))))))))))))",
"))))))))))))))))))))))))))))))))))))))))))))))))))-*o                   o  O*7))))))))))))))))))))))))))))))))))))))))))))))))))",
")))))))))))))))))))))))))))))))))))))))))))))))))))))))8=*-*&&O&oO&&*-*-8)))))))))))))))))))))))))))))))))))))))))))))))))))))))",
"))))))))))))))))))))))))))))))))))))))))))))))))))))))))))))))))))))))))))))))))))))))))))))))))))))))))))))))))))))))))))))))))",
"))))))))))))))))))))))))))))))))))))))))))))))))))))))))))))))))))))))))))))))))))))))))))))))))))))))))))))))))))))))))))))))))"
};
