/* XPM */
static char *result[] = {
/* columns rows colors chars-per-pixel */
"16 16 134 2 ",
"   c black",
".  c #000001",
"X  c #000002",
"o  c #000003",
"O  c #010203",
"+  c #020202",
"@  c #040303",
"#  c #020204",
"$  c #070504",
"%  c #070604",
"&  c #080706",
"*  c #0A0907",
"=  c #0D0A07",
"-  c #0E0C08",
";  c #130F09",
":  c #140F0A",
">  c #14100A",
",  c #18130A",
"<  c #1D170C",
"1  c #1C160D",
"2  c #1E170D",
"3  c #1E180D",
"4  c #1F180D",
"5  c #211A0F",
"6  c #261D0F",
"7  c #261E11",
"8  c #271F11",
"9  c #292011",
"0  c #2B2213",
"q  c #2C2213",
"w  c #2E2413",
"e  c #302614",
"r  c #312614",
"t  c #302615",
"y  c #312615",
"u  c #312716",
"i  c #332816",
"p  c #372A16",
"a  c #362A17",
"s  c #372B17",
"d  c #382C17",
"f  c #3A2C17",
"g  c #392C18",
"h  c #3A2D18",
"j  c #3A2E19",
"k  c #3C2E19",
"l  c #3D2F19",
"z  c #3E3019",
"x  c #3E301A",
"c  c #3F311A",
"v  c #40311A",
"b  c #41321A",
"n  c #40321B",
"m  c #41321B",
"M  c #43331A",
"N  c #43341B",
"B  c #46361B",
"V  c #43341C",
"C  c #44341C",
"Z  c #44351D",
"A  c #47371D",
"S  c #48381D",
"D  c #4A391D",
"F  c #49381E",
"G  c #4A391E",
"H  c #4B3A1E",
"J  c #4C3A1E",
"K  c #4D3B1F",
"L  c #4D3C1E",
"P  c #4E3C20",
"I  c #503D20",
"U  c #513F20",
"Y  c #513F21",
"T  c #564223",
"R  c #5A4524",
"E  c #5F4A26",
"W  c #604A26",
"Q  c #614B27",
"!  c #634C27",
"~  c #664E27",
"^  c #644E28",
"/  c #695129",
"(  c #6B522A",
")  c #6D542A",
"_  c #6E542B",
"`  c #70562B",
"'  c #74592D",
"]  c #755A2E",
"[  c #7A5D2E",
"{  c #7A5E30",
"}  c #7B5F30",
"|  c #7D6030",
" . c #806231",
".. c #806232",
"X. c #826432",
"o. c #826533",
"O. c #846533",
"+. c #846634",
"@. c #866734",
"#. c #886934",
"$. c #8E6D37",
"%. c #8F6E37",
"&. c #947139",
"*. c #947239",
"=. c #98753B",
"-. c #A57F3E",
";. c #AA8242",
":. c #B28945",
">. c #B88D46",
",. c #CB9D4D",
"<. c #CD9E4E",
"1. c #DEAA54",
"2. c #DFAB55",
"3. c #DFAC54",
"4. c #E3AF57",
"5. c #E9B258",
"6. c #EBB559",
"7. c #F1B95C",
"8. c #F3BA5C",
"9. c #F5BC5C",
"0. c #FBC05F",
"q. c #FBC15F",
"w. c #FCC15F",
"e. c #FFC360",
"r. c #FFC461",
"t. c #FFC661",
"y. c #FFC662",
"u. c #FFC762",
"i. c #FFC862",
"p. c #FFC963",
"a. c #FFD669",
"s. c #FFDA6C",
"d. c #FFDE6D",
"f. c None",
/* pixels */
"f.f.f.f.f.d b b b b z f.f.f.f.f.",
"f.f.f.p U f 4 = & ; 9 B I f.f.f.",
"f.f.b G @     . . .     < Y f.f.",
"f.a Z                     $ W f.",
"f.K .   R :.=.=.=.=.=.*.;.-.P i ",
"c q     O.u.5.r.0.w.w.p.i.(   l ",
"c * X   ' 7.>.) ~ / / } x     y ",
"k   #   ' y. .r *...o.$.: .   5 ",
"j   #   X.d.#.{ s.8.3.9.v     3 ",
"l o O   0 @.z t ` ] <.2.g     7 ",
"m 1   - %.+.%.&.| %.,.1.g     s ",
"u 8 6 4.a.e.r.r.r.q.6.t.V   % F ",
"f.n Q [ E ! ! ! ! ! ^ _ 1   C i ",
"f.f.A                     h A f.",
"f.f.f.T p +     .     , D S f.f.",
"f.f.f.f.N L M 2 > w H J e f.f.f."
};
